# xmcd
#
# Track frame offsets:
#	150
#	17288
#	32681
#	50757
#	62677
#	82187
#	99999
#	125100
#	142213
#	157281
#
# Disc length: 2348 seconds
#
# Revision: 0
# Processed by: cddbd v1.5.1PL0 Copyright (c) Steve Scherf et al.
# Submitted via: EasyCDDAExtractor 4.6.9.1
#
DISCID=8e092a0a
DTITLE=The Wooley Brothers - Whats Indide
DYEAR=2002
DGENRE=Country
TTITLE0=Who Love You More Than Me
TTITLE1=One Good Reason
TTITLE2=I Cry Them All For You
TTITLE3=Can I Lean On You
TTITLE4=When I Fall
TTITLE5=Whats Inside
TTITLE6=My Search Goes On
TTITLE7=Hard To Say Good
TTITLE8=Till I Get It Right
TTITLE9=Honey Dont
EXTD=
EXTT0=
EXTT1=
EXTT2=
EXTT3=
EXTT4=
EXTT5=
EXTT6=
EXTT7=
EXTT8=
EXTT9=
PLAYORDER=
